<svg width="32" height="32" viewBox="0 0 32 32" fill="none" xmlns="http://www.w3.org/2000/svg">
<path d="M3.63999 27.9999H28.3467C29.3733 27.9999 30.0133 26.8932 29.5067 25.9999L17.1467 4.66658C16.6267 3.77325 15.3467 3.77325 14.84 4.66658L2.47999 25.9999C1.97332 26.8932 2.61332 27.9999 3.63999 27.9999ZM17.3333 23.9999H14.6667V21.3332H17.3333V23.9999ZM16 18.6666C15.2667 18.6666 14.6667 18.0666 14.6667 17.3332V14.6666C14.6667 13.9332 15.2667 13.3332 16 13.3332C16.7333 13.3332 17.3333 13.9332 17.3333 14.6666V17.3332C17.3333 18.0666 16.7333 18.6666 16 18.6666Z" class="triangle" fill="#5F6267"/>
</svg>
